<svg width="171" height="40" viewBox="0 0 171 40" fill="none" xmlns="http://www.w3.org/2000/svg">
<g clip-path="url(#clip0_134_239)">
<mask id="mask0_134_239" style="mask-type:luminance" maskUnits="userSpaceOnUse" x="0" y="0" width="171" height="40">
<path d="M170.769 0H0V40H170.769V0Z" fill="white"/>
</mask>
<g mask="url(#mask0_134_239)">
<path d="M38.6613 25.6768C38.3356 25.4715 31.541 20.14 31.3473 20.0307C31.1536 19.9214 30.286 19.9454 30.0754 19.8334C29.8648 19.7214 29.1938 19.4309 29.1377 19.4495C29.1348 19.4495 29.1292 19.4602 29.1236 19.4655L28.3206 19.039L28.3824 18.5272H28.3852C28.3852 18.5272 28.4105 18.3006 28.4554 17.922C28.7193 15.6721 29.6262 7.8907 29.6065 7.69077C29.5813 7.45885 29.1798 7.33089 29.1377 7.70143C29.0955 8.07198 27.2509 16.2532 27.2369 16.4665C27.2228 16.6798 27.6468 17.3995 27.6384 17.6288C27.6384 17.6954 27.6384 17.8021 27.6412 17.9194V17.9327C27.6468 18.0313 27.6524 18.1353 27.658 18.2313L27.7085 19.0976L26.8017 19.4335L26.7736 19.4389L26.6697 19.4815C25.5972 19.9267 16.4694 23.7201 16.2813 23.848C16.0819 23.984 16.1661 24.3785 16.5255 24.2293C16.8849 24.08 25.2715 21.5075 25.4708 21.4115C25.6702 21.3156 26.1166 20.6091 26.33 20.4998C26.4816 20.4225 26.8297 20.2119 27.0291 20.076L27.4839 19.8281C27.5092 19.8974 27.5457 19.964 27.599 20.0147L27.4699 20.9637H27.453L27.0066 33.2956H28.4694L28.1915 21.3929V20.1C28.3038 20.044 28.3908 19.9507 28.4357 19.8361L29.1685 20.2199C30.7043 21.1983 38.2486 25.994 38.4536 26.074C38.681 26.1619 38.987 25.8794 38.6613 25.6741V25.6768Z" fill="white"/>
<path d="M3.13103 33.0983C3.10857 33.1276 3.13665 33.173 3.17596 33.1623C3.77961 33.0103 6.76699 32.2986 10.4675 32.0347C13.9743 31.7841 17.6215 31.8667 21.2462 32.3412C21.2771 32.3466 21.3108 32.3492 21.3417 32.3546C25.8593 32.9544 26.505 33.1543 29.0151 33.7621C29.0628 33.7728 29.0993 33.7168 29.0572 33.6954C26.7549 32.4772 9.90879 24.0133 3.12823 33.101L3.13103 33.0983Z" fill="#39B54A"/>
<path d="M21.3496 39.7121C21.3496 39.7121 37.3984 30.3019 43.7297 38.8271C43.7297 38.8271 36.8481 33.2983 21.3496 39.7121Z" fill="#095AA5"/>
<path d="M0 31.9147C0 31.9147 0.0168461 31.992 0.0533461 32.1306C0.477307 33.6821 3.57138 42.9324 16.4306 39.0617C30.4438 34.8444 36.0198 31.4802 43.6708 35.5642C43.6708 35.5642 39.5744 26.3139 19.5415 35.5988C19.5415 35.5988 12.1292 39.1256 6.90972 37.3422C1.68742 35.5588 0 31.9147 0 31.9147Z" fill="#095AA5"/>
<path d="M4.70068 25.7621C2.36188 22.8964 1.25565 19.2176 1.56169 15.6028C1.7105 13.7901 2.24115 12.0067 3.01888 10.3112C3.23226 9.89539 3.45969 9.48219 3.68711 9.06899C3.93699 8.66646 4.22057 8.27992 4.4873 7.88805C4.73999 7.48552 5.07692 7.13097 5.38295 6.76043L5.85184 6.20862C6.01188 6.02734 6.19718 5.86473 6.37126 5.69145C6.73626 5.3609 7.06757 5.00368 7.46064 4.69978L8.63706 3.78542C9.47937 3.23627 10.3048 2.6658 11.2342 2.23394C13.062 1.34624 15.0246 0.626476 17.091 0.319912C19.1378 -0.0133104 21.238 -0.103947 23.2792 0.141305C25.3175 0.394554 27.2998 0.922378 29.077 1.75677C27.1369 1.27959 25.1687 0.997019 23.2062 0.986356C22.7148 0.981025 22.2263 0.986356 21.7405 1.00768L20.2862 1.14097C19.8004 1.16763 19.3287 1.27159 18.8542 1.34624C18.3797 1.42621 17.9024 1.49285 17.4448 1.63147C15.5833 2.06066 13.8144 2.74844 12.2028 3.63347C11.3774 4.052 10.6305 4.57183 9.87806 5.07832L8.82799 5.92071C8.47422 6.19795 8.18503 6.53117 7.85653 6.82974C6.59868 8.06666 5.51491 9.45287 4.73157 10.9697C3.93138 12.4785 3.40634 14.0887 3.09188 15.7441C2.54157 19.0683 3.08907 22.5472 4.69788 25.7621H4.70068Z" fill="#FFD430"/>
<path d="M8.37634 23.7654C6.55415 21.5342 5.695 18.6711 5.93084 15.8561C6.04596 14.4459 6.45869 13.057 7.06515 11.7374C7.68846 10.4179 8.61499 9.22095 9.6763 8.13865C10.7573 7.06701 12.046 6.15531 13.4639 5.44621C14.8874 4.75311 16.4148 4.1933 18.0236 3.95604C19.6183 3.69746 21.2524 3.62549 22.8416 3.81742C24.4279 4.01469 25.9721 4.42522 27.3535 5.07567C25.843 4.70246 24.31 4.48387 22.7826 4.47587C22.4007 4.4732 22.0217 4.47587 21.6427 4.49453L20.5112 4.59849C20.1349 4.61982 19.7671 4.69979 19.3965 4.75844C19.0259 4.81975 18.6553 4.8704 18.2987 4.9797C16.8499 5.31292 15.4714 5.84875 14.2163 6.53918C13.5734 6.86441 12.9922 7.2696 12.4082 7.66414L11.5911 8.31992C11.316 8.53585 11.0914 8.79443 10.8359 9.02902C9.85599 9.99136 9.01088 11.071 8.40442 12.2519C7.78111 13.4276 7.37399 14.6805 7.12973 15.9707C6.70015 18.5592 7.12973 21.2676 8.38195 23.7708L8.37634 23.7654Z" fill="#F7941D"/>
<path d="M46.7731 13.7394L46.8742 13.7048C47.3262 14.1046 48.6908 14.899 48.9406 15.6801C49.0361 15.976 49.0501 16.1973 49.0501 16.4532C49.0501 16.8744 48.8901 17.4742 48.6571 17.7381C48.205 18.1939 47.6828 18.3725 47.1521 18.3725C46.7899 18.3725 46.4979 18.3032 46.2789 18.1646C45.7708 17.8527 45.5293 17.3009 45.5293 16.6318C45.5293 16.1679 45.7539 15.6641 45.9729 15.3069C46.1414 15.0297 46.3576 14.7551 46.6917 14.4299C46.6917 14.2033 46.7366 13.966 46.7731 13.7394ZM46.4306 12.8544C46.1329 12.5851 45.8718 12.3639 45.5798 12.1373C45.7679 11.8894 45.9729 11.6601 46.1554 11.4815C46.453 11.7028 46.7001 11.9294 46.9837 12.2199C46.7787 12.4972 46.6355 12.6758 46.4306 12.8544ZM45.9785 16.5198C45.9785 17.0317 46.5681 17.4528 47.1943 17.4528C47.6154 17.4528 47.986 17.3142 48.3286 17.0796C48.5616 16.9197 48.6486 16.7677 48.6486 16.6238C48.6486 16.3892 48.4521 16.1066 48.2556 15.872C47.9579 15.5202 47.5143 15.2083 47.0848 14.9737C46.4025 15.4908 45.9785 16.0027 45.9785 16.5198ZM47.8316 12.7637C47.534 12.4945 47.2729 12.2732 46.9809 12.0467C47.169 11.7987 47.3739 11.5695 47.5564 11.3909C47.8541 11.6121 48.1011 11.8387 48.3847 12.1293C48.1798 12.4065 48.0366 12.5851 47.8316 12.7637Z" fill="white"/>
<path d="M50.6415 16.4132C50.6639 17.0077 50.9251 17.4768 51.8348 17.4768C52.4019 17.4768 52.882 17.3116 53.4127 17.029C53.5081 16.981 53.5587 16.9197 53.5587 16.8637C53.5587 16.4905 53.3032 16 52.8764 15.5521C52.4609 15.1309 51.9106 14.7577 51.3939 14.5098C51.2199 14.4272 51.1609 14.3365 51.1609 14.2539C51.1609 14.0806 51.3659 13.7234 51.5315 13.4675L51.5905 13.4595C52.1801 13.8061 52.8399 14.3152 53.3284 14.8884C53.7721 15.4135 54.0472 15.944 54.0472 16.5251C54.0472 16.9543 53.9321 17.3595 53.7412 17.7327C53.0926 18.098 52.4019 18.3752 51.7196 18.3752C50.8914 18.3752 50.3242 17.9407 50.3242 16.917C50.3242 16.8077 50.3242 16.6344 50.3607 16.4132H50.6443H50.6415Z" fill="white"/>
<path d="M60.2418 18.2899H60.1042C59.4501 18.2899 58.9054 18.0287 58.6218 17.1649H58.5853C58.5263 17.4262 58.3747 17.6475 58.0631 17.8287C57.5829 18.106 57.0888 18.2926 56.6003 18.2926C55.786 18.2926 55.334 17.8234 55.334 17.0157C55.334 16.8424 55.3424 16.6771 55.3564 16.5038L55.64 16.4825C55.6681 17.0556 55.9685 17.4075 56.6648 17.4075C57.0495 17.4075 57.5071 17.2476 57.8497 17.0636C58.1192 16.9197 58.3214 16.7118 58.3214 16.5465C58.3214 16.0773 58.0603 15.1576 57.7177 13.9793C57.8862 13.7368 58.0462 13.4888 58.2343 13.2676L58.2793 13.2942C58.5488 14.2886 58.7734 15.3522 58.9699 16.3679C59.1019 17.0503 59.5736 17.4102 60.1183 17.4102H60.2418V18.2952V18.2899Z" fill="white"/>
<path d="M64.5765 16.1306C63.7342 15.8347 62.9621 15.6481 62.2939 15.6481C61.8783 15.6481 61.5751 15.7734 61.3702 15.992L61.4572 16.3385L61.2382 16.9597H61.1652L60.8086 16.048C60.8676 15.2829 61.5133 14.8057 62.3865 14.8057C62.8751 14.8057 63.6219 14.9657 64.7731 15.4002C65.1212 15.5308 65.5592 15.6268 66.0169 15.6268H66.6486L66.6626 15.6401L66.2106 16.3519C65.6294 16.3519 65.2223 16.4692 64.9808 16.6131L63.7651 17.3649C62.7543 17.9807 61.752 18.2899 60.5728 18.2899H60.2387C59.84 18.2899 59.7305 18.0127 59.7305 17.8261C59.7305 17.6608 59.8456 17.4049 60.2387 17.4049H60.6823C61.8615 17.4049 63.0688 17.0103 64.5653 16.1546L64.5737 16.128L64.5765 16.1306ZM62.9032 19.3216C63.2008 19.5295 63.4928 19.7774 63.7763 20.06C63.6163 20.3079 63.4198 20.5371 63.1727 20.7371C62.8891 20.4812 62.6055 20.2599 62.3135 20.0253C62.5101 19.7774 62.7066 19.5348 62.9032 19.3216ZM65.3908 16.5998L65.4132 16.6078C65.4413 17.1943 65.9523 17.4075 66.6992 17.4075H66.8957V18.2926H66.6711C65.7333 18.2926 65.1072 17.9807 65.1072 17.1543C65.1072 17.0237 65.1156 16.8984 65.1297 16.7677L65.3908 16.6025V16.5998Z" fill="white"/>
<path d="M67.056 17.4075C67.6148 17.4075 68.1988 17.1942 68.3055 16.7997L68.516 16.0533L69.0186 15.7067L69.0635 15.7547C68.9625 16.1066 68.9035 16.4025 68.9035 16.5545C68.9035 16.797 68.9681 16.997 69.145 17.1276C69.378 17.3062 69.6616 17.4048 70.0462 17.4048H70.1782V18.2899H70.0097C69.2966 18.2899 68.7575 18.1033 68.5104 17.5861H68.4824C68.2353 18.05 67.6597 18.2899 67.0364 18.2899H66.8988C66.5001 18.2899 66.3906 18.0126 66.3906 17.826C66.3906 17.6608 66.5057 17.4048 66.8988 17.4048H67.0589L67.056 17.4075ZM67.8562 14.7897C67.5586 14.5205 67.2975 14.2992 67.0055 14.0726C67.1936 13.8247 67.3986 13.5954 67.5811 13.4168C67.8787 13.6381 68.1258 13.8647 68.4093 14.1553C68.2044 14.4325 68.0612 14.6111 67.8562 14.7897ZM69.2601 14.6991C68.9625 14.4298 68.7013 14.2086 68.4093 13.982C68.5975 13.7341 68.8024 13.5048 68.9849 13.3262C69.2825 13.5475 69.5296 13.7741 69.8132 14.0646C69.611 14.3419 69.465 14.5205 69.2601 14.6991Z" fill="white"/>
<path d="M71.9366 17.6954C71.42 18.1033 70.9764 18.2899 70.2772 18.2899H70.1762C69.7775 18.2899 69.668 18.0127 69.668 17.826C69.668 17.6608 69.7831 17.4049 70.1762 17.4049H70.2407C70.9679 17.4049 71.448 17.2103 71.8917 16.9144C71.7597 15.5761 71.7316 14.1953 71.7316 13.1156C71.7316 12.8384 71.6727 12.3985 71.6727 12.0733C71.6727 11.844 71.7232 11.6521 71.8973 11.4655C71.9984 11.3482 72.1443 11.2229 72.3044 11.1056L72.3774 11.1483C72.3549 11.2736 72.3549 11.3562 72.3549 11.4388C72.369 11.9293 72.6104 12.3905 72.9137 12.8464L72.383 13.1983C72.383 15.3789 72.4111 15.952 72.5065 16.5598L72.5346 16.5731C72.8322 16.4132 73.1242 16.3305 73.4668 16.3305C73.7728 16.3305 74.0788 16.4692 74.295 16.7091C74.514 16.9437 74.6432 17.3089 74.6432 17.6608C74.6432 18.5165 74.0255 18.9857 73.4949 18.9857C72.8182 18.9857 72.2595 18.4685 71.9675 17.6794L71.931 17.6874L71.9366 17.6954ZM73.8346 18.2259C73.9722 18.2259 74.0957 18.1779 74.1912 18.1006C74.1912 17.858 74.0817 17.6448 73.9216 17.4582C73.784 17.2929 73.5594 17.1463 73.2393 17.1463C73.0344 17.1463 72.8182 17.1943 72.6497 17.2982C72.8238 17.8287 73.3629 18.2232 73.8346 18.2232V18.2259Z" fill="white"/>
<path d="M75.9872 18.4072C76.0602 17.9727 76.0658 17.4822 76.0658 17.0263V16.3492C76.0658 15.0856 75.9198 13.2489 75.8047 12.0547C76.0068 11.8067 76.2932 11.5162 76.5178 11.3216L76.5824 11.3429C76.734 12.8491 76.7705 14.5951 76.7705 16.2026C76.7705 16.6238 76.7565 17.037 76.72 17.3409C76.6975 17.7194 76.501 18.01 76.0798 18.4525L75.9844 18.4045L75.9872 18.4072Z" fill="white"/>
<path d="M84.2775 18.2979C83.5138 18.2979 82.9551 18.042 82.9551 17.4902C82.9551 17.2902 83.0281 17.0343 83.1937 16.6824C83.4998 16.0666 84.2635 15.4402 85.5129 14.7844L85.468 14.2672C85.6505 14.0673 85.847 13.8674 86.0435 13.7021H86.125C86.153 14.7711 86.153 15.8507 86.1699 16.9197C86.1783 17.4022 86.2289 17.7141 86.445 17.8927C86.6135 18.0313 86.8886 18.0713 87.2087 18.0713H87.3828V18.9563H87.2228C86.5096 18.9563 85.993 18.7777 85.7178 17.9967C85.3023 18.1699 84.8447 18.3006 84.2775 18.3006V18.2979ZM85.5634 15.5495C84.2691 16.1839 83.5924 16.6958 83.5924 17.061C83.5924 17.3302 84.0276 17.4475 84.5246 17.4475C84.8362 17.4475 85.1732 17.3862 85.5999 17.2529L85.5634 15.5468V15.5495ZM84.7043 13.105C84.4067 12.8357 84.1455 12.6145 83.8535 12.3879C84.0417 12.14 84.2466 11.9107 84.4291 11.7321C84.7267 11.9533 84.9738 12.1799 85.2574 12.4705C85.0524 12.7477 84.9092 12.9264 84.7043 13.105ZM86.1081 13.0143C85.8105 12.7451 85.5494 12.5238 85.2574 12.2972C85.4455 12.0493 85.6505 11.8201 85.833 11.6414C86.1306 11.8627 86.3777 12.0893 86.6612 12.3799C86.4563 12.6571 86.3131 12.8357 86.1081 13.0143Z" fill="white"/>
<path d="M87.9933 18.0686C88.6194 18.0686 89.1641 18.0473 89.5797 17.93C90.0457 17.7994 90.4388 17.5355 90.4388 17.3569C90.4388 17.3089 90.4388 17.2529 90.4248 17.2049C90.1637 17.2316 89.866 17.2316 89.6021 17.2316C88.7598 17.2316 88.1112 17.0183 87.8557 16.4852C87.7912 16.3412 87.7462 16.1733 87.7462 15.9893C87.7462 15.4775 87.9428 14.9737 88.2909 14.6298C88.5829 14.3472 88.903 14.1659 89.2287 14.1659C89.8183 14.1659 90.29 14.6964 90.6185 15.5335C90.801 15.9893 90.9245 16.5145 90.9245 17.1756C90.9245 17.6181 90.815 17.9913 90.568 18.2659C90.1103 18.7617 89.2652 18.9483 87.9709 18.9483H87.3812C86.9825 18.9483 86.873 18.6711 86.873 18.4845C86.873 18.3192 86.9882 18.0633 87.3812 18.0633H87.9933V18.0686ZM88.232 13.5182C87.9344 13.2489 87.6732 13.0277 87.3812 12.8011C87.5694 12.5531 87.7743 12.3239 87.9568 12.1453C88.2544 12.3665 88.5015 12.5931 88.7851 12.8837C88.5829 13.1609 88.4369 13.3396 88.232 13.5182ZM89.0687 15.0723C88.5885 15.0723 88.1955 15.4242 88.1955 15.6881C88.1955 16.2479 89.1557 16.4212 90.304 16.4132C90.158 15.7574 89.6555 15.075 89.0687 15.075V15.0723ZM89.6358 13.4302C89.3382 13.1609 89.0771 12.9397 88.7851 12.7131C88.9732 12.4652 89.1782 12.2359 89.3607 12.0573C89.6583 12.2786 89.9053 12.5052 90.1889 12.7957C89.9868 13.073 89.8408 13.2516 89.6358 13.4302Z" fill="white"/>
<path d="M94.1607 18.9537H94.0793C93.5037 18.9537 93.1331 18.8444 92.8355 18.5591C92.3919 18.1299 92.3834 17.6421 92.3834 16.6264C92.3834 15.3149 92.3048 13.9393 92.1953 12.4758C92.4424 12.2199 92.667 11.9933 92.8776 11.8334L92.9281 11.86C93.0432 13.3715 93.0432 15.1603 93.0432 16.8584V17.2529C93.0432 17.6954 93.3043 17.8954 93.5879 17.9913C93.7704 18.0526 93.9585 18.066 94.054 18.066H94.1551V18.951L94.1607 18.9537Z" fill="white"/>
<path d="M94.6696 18.0686L95.2227 17.4395C95.3182 17.0876 95.3322 16.7757 95.3322 16.0666C95.3322 15.1629 95.2311 13.6834 95.1497 12.897C95.1272 12.6838 95.1048 12.4332 95.1048 12.2199C95.1048 11.908 95.3097 11.6894 95.6719 11.4255L95.7225 11.4735C95.7225 11.8734 95.933 12.3719 96.3402 12.993L95.8685 13.3369C95.905 14.0833 95.933 14.827 95.933 15.5735C95.933 16.1813 95.8376 16.5891 95.6775 16.9543H95.7056C96.2447 16.4078 96.7529 15.9733 97.247 15.6908C97.6457 15.4562 98.1483 15.3122 98.6003 15.3122C99.51 15.3122 100.338 16.0453 100.338 17.0103C100.338 17.3622 100.164 17.7007 99.9593 18.0313C100.142 18.058 100.431 18.066 100.709 18.066H100.993V18.951H100.818C99.9817 18.951 99.204 18.8764 98.4628 18.7297C97.466 18.903 96.1801 18.951 94.6752 18.951H94.1586C93.7599 18.951 93.6504 18.6738 93.6504 18.4872C93.6504 18.3219 93.7655 18.066 94.1586 18.066H94.6668L94.6696 18.0686ZM95.9724 18.0686C97.8788 18.0686 99.4118 17.938 99.7318 17.4262C99.7318 16.845 99.0496 16.2532 98.2185 16.2532C97.2807 16.2532 96.444 16.8957 95.2957 18.0686H95.9724Z" fill="white"/>
<path d="M101.141 18.0686C101.438 18.0686 101.758 17.9727 101.983 17.8554C102.202 17.7381 102.331 17.5168 102.331 17.0263C102.331 15.6374 102.25 14.3952 102.143 12.809L102.12 12.4625L102.766 11.8414L102.803 11.8547C102.94 13.4782 102.949 15.1683 102.949 17.2822C102.949 17.5995 103.182 18.0686 104.024 18.0686H104.119V18.9537H103.968C103.291 18.9537 102.783 18.7324 102.55 18.2206H102.522C102.297 18.6151 101.823 18.9537 101.118 18.9537H100.995C100.596 18.9537 100.486 18.6764 100.486 18.4898C100.486 18.3245 100.601 18.0686 100.995 18.0686H101.141Z" fill="white"/>
<path d="M104.283 18.0686C104.517 18.0686 104.786 18.042 105.098 17.882C105.353 17.7434 105.482 17.4955 105.482 17.1356C105.468 16.032 105.387 14.8217 105.272 13.5528C105.244 13.2356 105.199 12.945 105.199 12.6891C105.199 12.5371 105.272 12.3772 105.418 12.2253C105.519 12.108 105.656 11.9773 105.819 11.8467L105.87 11.8814C105.856 12.3292 106.08 12.8677 106.459 13.4622C106.327 13.5795 106.176 13.6968 106.002 13.8141C106.03 14.6085 106.097 15.4428 106.097 16.2106C106.097 16.9783 106.016 17.5301 105.805 17.9433C105.654 18.2952 105.48 18.5858 105.143 18.7431C104.859 18.8817 104.516 18.951 104.233 18.951H104.123C103.725 18.951 103.615 18.6738 103.615 18.4872C103.615 18.3219 103.73 18.066 104.123 18.066H104.283V18.0686Z" fill="white"/>
<path d="M117.323 11.6148C117.382 13.3209 117.424 14.819 117.424 16.4692C117.424 16.7944 117.575 17.1942 117.786 17.3542C117.946 17.4715 118.179 17.5408 118.499 17.5488H118.581V18.4338H118.443C117.918 18.4338 117.533 18.2739 117.3 17.9167H117.272C117.222 18.2686 117.149 18.6284 117.017 18.9457C116.792 19.2922 116.5 19.5321 116.18 19.7267C115.714 20.0173 115.183 20.1559 114.667 20.1559C114.035 20.1559 113.51 19.948 113.153 19.5615C112.819 19.1962 112.637 18.6711 112.637 18.002C112.637 17.4208 112.833 16.8424 113.125 16.2612L113.386 16.3572C113.204 16.7517 113.08 17.1569 113.08 17.5595C113.08 17.962 113.195 18.3192 113.451 18.6284C113.763 19.015 114.192 19.1882 114.709 19.1882C115.197 19.1882 115.604 19.0576 115.967 18.863C116.323 18.6764 116.615 18.4632 116.758 18.2072C116.772 18.1299 116.809 18.0633 116.809 17.7514C116.809 16.6744 116.75 14.8857 116.59 12.1932C116.809 11.9667 117.025 11.7587 117.258 11.5854L117.317 11.6201L117.323 11.6148Z" fill="white"/>
<path d="M118.74 17.5461C119.298 17.5461 119.882 17.3329 119.992 16.9383L120.202 16.1919L120.705 15.8454L120.75 15.8934C120.649 16.2452 120.59 16.5411 120.59 16.6931C120.59 16.9357 120.654 17.1356 120.829 17.2662C121.062 17.4448 121.345 17.5435 121.73 17.5435H121.862V18.4285H121.693C120.98 18.4285 120.441 18.2419 120.194 17.7247H120.166C119.919 18.1886 119.343 18.4285 118.72 18.4285H118.582C118.184 18.4285 118.074 18.1513 118.074 17.9647C118.074 17.7994 118.189 17.5435 118.582 17.5435H118.742L118.74 17.5461ZM120.079 19.7347C120.377 19.9427 120.669 20.1906 120.952 20.4732C120.792 20.7211 120.596 20.9503 120.348 21.1503C120.065 20.8944 119.781 20.6731 119.489 20.4385C119.686 20.1906 119.882 19.948 120.079 19.7347Z" fill="white"/>
<path d="M121.983 17.5461C122.382 17.5461 122.834 17.4502 123.154 17.3809C122.921 17.0077 122.898 16.6691 122.898 16.3305C122.898 15.8054 123.067 15.1923 123.553 14.7071C123.932 14.3205 124.389 14.0646 124.65 14.0646C124.911 14.0646 125.232 14.3419 125.501 14.8297C125.675 15.1469 125.776 15.4722 125.776 15.8107C125.776 16.4452 125.58 16.9437 125.288 17.4182C125.563 17.4928 125.933 17.5435 126.422 17.5435H126.655V18.4285H126.444C125.717 18.4285 124.99 18.2979 124.066 17.986C123.143 18.2979 122.48 18.4285 121.986 18.4285H121.854C121.455 18.4285 121.346 18.1513 121.346 17.9647C121.346 17.7994 121.461 17.5435 121.854 17.5435H121.977L121.983 17.5461ZM123.693 13.2729C123.395 13.0037 123.134 12.7824 122.842 12.5558C123.03 12.3079 123.235 12.0786 123.418 11.9C123.715 12.1213 123.962 12.3479 124.246 12.6384C124.044 12.9157 123.898 13.0943 123.693 13.2729ZM125.38 16.3305C125.38 16.0826 125.279 15.848 125.206 15.7094C125.01 15.3442 124.785 15.0883 124.488 15.0883C123.92 15.0883 123.367 15.7307 123.235 16.2399C123.336 16.6398 123.606 16.9783 124.232 17.1569C124.735 17.061 125.38 16.6105 125.38 16.3279V16.3305ZM125.097 13.1823C124.799 12.913 124.538 12.6918 124.246 12.4652C124.434 12.2173 124.639 11.988 124.822 11.8094C125.119 12.0306 125.366 12.2572 125.65 12.5478C125.445 12.825 125.302 13.0037 125.097 13.1823Z" fill="white"/>
<path d="M126.82 17.5462C127.378 17.5462 127.962 17.3329 128.072 16.9384L128.283 16.1919L128.785 15.8454L128.83 15.8934C128.729 16.2453 128.67 16.5412 128.67 16.6931C128.67 16.9357 128.735 17.1356 128.909 17.2662C129.142 17.4448 129.425 17.5435 129.81 17.5435H129.942V18.4285H129.773C129.06 18.4285 128.521 18.2419 128.274 17.7248H128.246C127.999 18.1886 127.423 18.4285 126.8 18.4285H126.662C126.264 18.4285 126.154 18.1513 126.154 17.9647C126.154 17.7994 126.269 17.5435 126.662 17.5435H126.823L126.82 17.5462ZM127.62 14.9284C127.322 14.6591 127.061 14.4379 126.769 14.2113C126.957 13.9633 127.162 13.7341 127.345 13.5555C127.642 13.7767 127.889 14.0033 128.173 14.2939C127.968 14.5711 127.825 14.7497 127.62 14.9284ZM129.024 14.8377C128.726 14.5685 128.465 14.3472 128.173 14.1206C128.361 13.8727 128.566 13.6435 128.749 13.4648C129.046 13.6861 129.293 13.9127 129.577 14.2033C129.372 14.4805 129.229 14.6591 129.024 14.8377Z" fill="white"/>
<path d="M137.386 18.4285H137.203C136.302 18.4285 135.887 18.1673 135.707 17.7807H135.662C135.255 18.2366 134.839 18.4285 134.418 18.4285C134.106 18.4285 133.741 18.3379 133.626 17.8554H133.598C133.273 18.1939 132.879 18.4285 132.34 18.4285C131.939 18.4285 131.686 18.2499 131.641 17.842H131.613C131.17 18.3325 130.558 18.4285 130.063 18.4285H129.94C129.541 18.4285 129.432 18.1513 129.432 17.9647C129.432 17.7994 129.547 17.5435 129.94 17.5435H130.187C130.85 17.5355 131.358 17.3702 131.72 16.901L132.082 16.3625L132.641 16.1759L132.669 16.2106C132.394 16.6664 132.197 16.9916 132.197 17.1969C132.197 17.4022 132.366 17.5408 132.59 17.5408C132.801 17.5408 133.034 17.4715 133.222 17.3329C133.405 17.2076 133.584 16.9677 133.694 16.7251L133.868 16.3172L134.421 16.0746L134.449 16.1013C134.23 16.6264 134.151 16.8823 134.151 17.1383C134.151 17.3249 134.275 17.5381 134.558 17.5381C134.797 17.5381 134.952 17.4555 135.061 17.3862C135.28 17.2476 135.395 17.021 135.482 16.7224C135.51 16.6131 135.555 16.4798 135.628 16.1759L136.181 15.824L136.209 15.8454C136.114 16.1493 136.027 16.5358 136.027 16.7917C136.027 17.3382 136.529 17.5381 137.22 17.5381H137.38V18.4232L137.386 18.4285Z" fill="white"/>
<path d="M139.146 17.834C138.629 18.2419 138.185 18.4285 137.486 18.4285H137.385C136.986 18.4285 136.877 18.1513 136.877 17.9647C136.877 17.7994 136.992 17.5435 137.385 17.5435H137.45C138.177 17.5435 138.657 17.3489 139.101 17.053C138.969 15.7147 138.941 14.3339 138.941 13.2542C138.941 12.977 138.882 12.5371 138.882 12.2119C138.882 11.9827 138.932 11.7907 139.106 11.6041C139.207 11.4868 139.353 11.3615 139.513 11.2442L139.586 11.2869C139.564 11.4122 139.564 11.4948 139.564 11.5775C139.578 12.068 139.819 12.5291 140.123 12.985L139.592 13.3369C139.592 15.5175 139.62 16.0906 139.716 16.6984L139.744 16.7117C140.041 16.5518 140.333 16.4692 140.676 16.4692C140.982 16.4692 141.288 16.6078 141.504 16.8477C141.723 17.0823 141.852 17.4475 141.852 17.7994C141.852 18.6551 141.234 19.1243 140.704 19.1243C140.027 19.1243 139.468 18.6071 139.176 17.818L139.14 17.826L139.146 17.834ZM141.044 18.3645C141.181 18.3645 141.305 18.3165 141.4 18.2392C141.4 17.9966 141.291 17.7834 141.131 17.5968C140.993 17.4315 140.768 17.2849 140.448 17.2849C140.246 17.2849 140.027 17.3329 139.859 17.4368C140.033 17.9673 140.572 18.3619 141.044 18.3619V18.3645Z" fill="white"/>
<path d="M143.197 18.5458C143.27 18.1113 143.279 17.6208 143.279 17.1649V16.4878C143.279 15.2243 143.133 13.3875 143.018 12.1933C143.223 11.9453 143.506 11.6548 143.731 11.4602L143.795 11.4815C143.947 12.9877 143.983 14.7337 143.983 16.3412C143.983 16.7624 143.969 17.1756 143.933 17.4795C143.91 17.858 143.714 18.1486 143.293 18.5911L143.197 18.5431V18.5458Z" fill="white"/>
<path d="M155.838 11.7028C155.897 13.4089 155.939 14.907 155.939 16.5571C155.939 16.8824 156.091 17.2822 156.302 17.4422C156.462 17.5595 156.695 17.6288 157.015 17.6368H157.096V18.5218H156.959C156.434 18.5218 156.049 18.3619 155.816 18.0047H155.788C155.737 18.3565 155.664 18.7164 155.532 19.0336C155.308 19.3802 155.016 19.6201 154.696 19.8147C154.23 20.1053 153.699 20.2439 153.182 20.2439C152.551 20.2439 152.026 20.036 151.669 19.6494C151.335 19.2842 151.152 18.7591 151.152 18.09C151.152 17.5088 151.349 16.9303 151.641 16.3492L151.902 16.4452C151.72 16.8397 151.596 17.2449 151.596 17.6474C151.596 18.05 151.711 18.4072 151.967 18.7164C152.278 19.103 152.708 19.2762 153.224 19.2762C153.713 19.2762 154.12 19.1456 154.482 18.951C154.839 18.7644 155.131 18.5511 155.274 18.2952C155.288 18.2179 155.325 18.1513 155.325 17.8394C155.325 16.7624 155.266 14.9737 155.106 12.2812C155.325 12.0546 155.541 11.8467 155.774 11.6734L155.833 11.7081L155.838 11.7028Z" fill="white"/>
<path d="M157.22 17.6341C157.837 17.6341 158.331 17.6128 158.652 17.5035C158.907 17.4128 159.067 17.3169 159.067 17.1996C159.067 16.8744 158.719 16.1972 158.34 15.4935C158.514 15.1976 158.696 14.9337 158.885 14.7124H158.921C159.255 15.2722 159.648 16.1359 159.648 16.8184C159.648 17.3355 159.429 17.7354 159.14 18.1033C158.812 18.4152 158.295 18.5165 157.183 18.5165H157.096C156.697 18.5165 156.588 18.2392 156.588 18.0526C156.588 17.8873 156.703 17.6314 157.096 17.6314H157.22V17.6341ZM159.584 13.2302C159.497 13.4035 159.401 13.5608 159.3 13.6994C158.573 13.8087 157.941 13.99 157.411 14.2166L157.397 14.1952L157.571 13.9047C157.635 13.83 157.781 13.7181 157.905 13.6781V13.6568C157.562 13.5608 157.338 13.3529 157.338 13.057C157.338 12.8704 157.475 12.6278 157.68 12.4492C157.919 12.2279 158.261 12.0546 158.559 12.0546C158.856 12.0546 159.017 12.2146 159.017 12.3932C159.017 12.5718 158.899 12.7104 158.784 12.841H158.769C158.691 12.6891 158.618 12.5931 158.536 12.5718C158.486 12.5585 158.399 12.5505 158.312 12.5505C158.056 12.5505 157.804 12.6891 157.804 12.793C157.804 13.1236 158.416 13.2356 158.842 13.2356C159.09 13.2356 159.337 13.2222 159.584 13.2089V13.2302Z" fill="white"/>
<path d="M161.102 18.6365C161.175 18.2019 161.183 17.7114 161.183 17.2556V16.5785C161.183 15.3149 161.037 13.4782 160.922 12.2839C161.127 12.036 161.41 11.7454 161.635 11.5508L161.7 11.5721C161.851 13.0783 161.888 14.8244 161.888 16.4319C161.888 16.853 161.874 17.2662 161.837 17.5701C161.815 17.9487 161.618 18.2392 161.197 18.6818L161.102 18.6338V18.6365Z" fill="white"/>
<path d="M168.213 18.5192H168.076C167.422 18.5192 166.877 18.2579 166.593 17.3942H166.557C166.498 17.6554 166.346 17.8767 166.032 18.058C165.552 18.3352 165.058 18.5218 164.569 18.5218C163.755 18.5218 163.303 18.0526 163.303 17.2449C163.303 17.0716 163.311 16.9064 163.325 16.7331L163.609 16.7118C163.637 17.2849 163.934 17.6368 164.634 17.6368C165.018 17.6368 165.479 17.4768 165.818 17.2929C166.088 17.1489 166.29 16.941 166.29 16.7757C166.29 16.3066 166.029 15.3869 165.686 14.2086C165.855 13.966 166.015 13.7181 166.203 13.4968L166.248 13.5235C166.518 14.5178 166.742 15.5815 166.939 16.5971C167.071 17.2796 167.542 17.6394 168.087 17.6394H168.211V18.5245L168.213 18.5192Z" fill="white"/>
<path d="M168.337 17.6341C168.954 17.6341 169.449 17.6128 169.769 17.5035C170.024 17.4129 170.184 17.3169 170.184 17.1996C170.184 16.8744 169.836 16.1973 169.457 15.4935C169.631 15.1976 169.814 14.9337 170.002 14.7124H170.038C170.372 15.2722 170.765 16.136 170.765 16.8184C170.765 17.3356 170.546 17.7354 170.257 18.1033C169.929 18.4152 169.412 18.5165 168.3 18.5165H168.213C167.815 18.5165 167.705 18.2393 167.705 18.0527C167.705 17.8874 167.82 17.6315 168.213 17.6315H168.337V17.6341ZM169.713 19.8227C170.01 20.0307 170.302 20.2786 170.586 20.5611C170.426 20.8091 170.229 21.0383 169.982 21.2383C169.699 20.9823 169.415 20.7611 169.123 20.5265C169.319 20.2786 169.516 20.036 169.713 19.8227Z" fill="white"/>
<path d="M45.6532 27.6308V23.0776H47.0177C47.4333 23.0776 47.7618 23.1736 48.0032 23.3655C48.2447 23.5575 48.3682 23.8081 48.3682 24.1173C48.3682 24.3759 48.2952 24.5998 48.1464 24.7891C48.0004 24.9783 47.7955 25.1143 47.5372 25.1943V25.2076C47.86 25.2422 48.1184 25.3595 48.3121 25.5541C48.5058 25.7487 48.6041 26.0047 48.6041 26.3166C48.6041 26.7058 48.4581 27.0203 48.1633 27.2629C47.8685 27.5055 47.4979 27.6255 47.0486 27.6255H45.6504L45.6532 27.6308ZM46.2147 23.5601V25.029H46.7903C47.0992 25.029 47.3406 24.9597 47.5147 24.8184C47.6916 24.6771 47.7786 24.4798 47.7786 24.2239C47.7786 23.7814 47.4726 23.5601 46.8605 23.5601H46.2147ZM46.2147 25.5088V27.1483H46.9784C47.3069 27.1483 47.5652 27.0736 47.7449 26.927C47.9274 26.7777 48.0173 26.5751 48.0173 26.3166C48.0173 25.7781 47.6326 25.5088 46.8605 25.5088H46.2147Z" fill="white"/>
<path d="M51.9226 27.6308H51.375V27.1216H51.361C51.1224 27.5108 50.7714 27.7054 50.3081 27.7054C49.9684 27.7054 49.6989 27.6201 49.5079 27.4495C49.3142 27.2789 49.2188 27.0496 49.2188 26.7671C49.2188 26.1593 49.595 25.8074 50.3502 25.7061L51.3778 25.5701C51.3778 25.0183 51.1419 24.7411 50.673 24.7411C50.2603 24.7411 49.8897 24.8744 49.5556 25.1409V24.6078C49.8925 24.4052 50.2801 24.3039 50.7181 24.3039C51.5239 24.3039 51.9254 24.7091 51.9254 25.5168V27.6308H51.9226ZM51.375 25.986L50.5495 26.0926C50.294 26.1273 50.1031 26.1859 49.9739 26.2712C49.8448 26.3565 49.7803 26.5085 49.7803 26.7271C49.7803 26.8844 49.8391 27.015 49.9599 27.1163C50.0778 27.2176 50.2379 27.2682 50.4373 27.2682C50.7096 27.2682 50.9341 27.1776 51.111 26.9963C51.2879 26.8151 51.3778 26.5858 51.3778 26.3086V25.986H51.375Z" fill="white"/>
<path d="M55.8414 27.6308H55.2939V27.0789H55.2799C55.0244 27.4975 54.6341 27.7081 54.1034 27.7081C53.6739 27.7081 53.3285 27.5615 53.073 27.2709C52.8175 26.9803 52.6855 26.5831 52.6855 26.0819C52.6855 25.5435 52.8287 25.1143 53.1123 24.789C53.3987 24.4665 53.7777 24.3039 54.2522 24.3039C54.7267 24.3039 55.0637 24.4798 55.2799 24.8317H55.2939V22.819H55.8414V27.6308ZM55.2939 26.1619V25.6821C55.2939 25.4208 55.2012 25.1969 55.0187 25.0156C54.8362 24.8344 54.6032 24.7437 54.3224 24.7437C53.9883 24.7437 53.7244 24.861 53.5335 25.0929C53.3425 25.3249 53.2471 25.6474 53.2471 26.058C53.2471 26.4338 53.3397 26.7271 53.5222 26.9457C53.7075 27.1616 53.9518 27.2709 54.2635 27.2709C54.5751 27.2709 54.8166 27.1669 55.0075 26.9563C55.1984 26.7457 55.2939 26.4818 55.2939 26.1619Z" fill="white"/>
<path d="M59.3679 27.6308H58.8204V27.1216H58.8063C58.5677 27.5108 58.2167 27.7054 57.7534 27.7054C57.4137 27.7054 57.1442 27.6201 56.9533 27.4495C56.7595 27.2789 56.6641 27.0496 56.6641 26.7671C56.6641 26.1593 57.0403 25.8074 57.7956 25.7061L58.8232 25.5701C58.8232 25.0183 58.5873 24.7411 58.1184 24.7411C57.7057 24.7411 57.3351 24.8744 57.001 25.1409V24.6078C57.3379 24.4052 57.7254 24.3039 58.1634 24.3039C58.9692 24.3039 59.3707 24.7091 59.3707 25.5168V27.6308H59.3679ZM58.8204 25.986L57.9949 26.0926C57.7394 26.1273 57.5485 26.1859 57.4193 26.2712C57.2902 26.3565 57.2256 26.5085 57.2256 26.7271C57.2256 26.8844 57.2846 27.015 57.4053 27.1163C57.5232 27.2176 57.6833 27.2682 57.8826 27.2682C58.1549 27.2682 58.3796 27.1776 58.5564 26.9963C58.7333 26.8151 58.8232 26.5858 58.8232 26.3086V25.986H58.8204Z" fill="white"/>
<path d="M63.1193 26.1353H60.7019C60.7103 26.4978 60.8142 26.7777 61.0108 26.9723C61.2073 27.1696 61.4768 27.2682 61.8194 27.2682C62.204 27.2682 62.5606 27.1483 62.8835 26.9057V27.3935C62.5831 27.6015 62.1844 27.7054 61.6902 27.7054C61.1961 27.7054 60.8255 27.5588 60.5503 27.2629C60.2752 26.967 60.1348 26.5511 60.1348 26.018C60.1348 25.5115 60.2864 25.101 60.5868 24.7811C60.89 24.4612 61.2635 24.3039 61.7127 24.3039C62.1619 24.3039 62.5073 24.4425 62.7515 24.7171C62.9958 24.9917 63.1193 25.3729 63.1193 25.8634V26.1353ZM62.5578 25.6928C62.5578 25.3915 62.4792 25.1596 62.3276 24.9917C62.176 24.8237 61.9682 24.7411 61.7015 24.7411C61.4347 24.7411 61.2242 24.8291 61.0417 25.005C60.862 25.1809 60.7497 25.4102 60.7075 25.6928H62.5578Z" fill="white"/>
<path d="M64.4655 27.6308H63.918V22.819H64.4655V27.6308Z" fill="white"/>
<path d="M71.1661 27.6308H70.5428L70.0346 26.3539H68.0019L67.5246 27.6308H66.8984L68.7375 23.0776H69.3187L71.1633 27.6308H71.1661ZM69.8521 25.874L69.0997 23.9334C69.0744 23.8694 69.0519 23.7681 69.0267 23.6295H69.0126C68.9902 23.7574 68.9649 23.8614 68.9368 23.9334L68.19 25.874H69.8521Z" fill="white"/>
<path d="M72.3131 27.6308H71.7656V22.819H72.3131V27.6308Z" fill="white"/>
<path d="M78.2507 27.6308H77.7032V25.7647C77.7032 25.4048 77.6443 25.1436 77.5263 24.9836C77.4084 24.8237 77.2119 24.7411 76.9367 24.7411C76.7037 24.7411 76.5044 24.8424 76.3387 25.045C76.1759 25.2476 76.0916 25.4928 76.0916 25.7754V27.6308H75.5441V25.7007C75.5441 25.061 75.283 24.7411 74.7664 24.7411C74.5249 24.7411 74.3284 24.837 74.1712 25.029C74.0139 25.2209 73.9381 25.4688 73.9381 25.7754V27.6308H73.3906V24.3785H73.9381V24.893H73.9522C74.1964 24.4985 74.5502 24.3012 75.0163 24.3012C75.2493 24.3012 75.4543 24.3625 75.6283 24.4878C75.8024 24.6104 75.9204 24.7731 75.9849 24.9756C76.2404 24.5278 76.6167 24.3012 77.122 24.3012C77.8745 24.3012 78.2535 24.7437 78.2535 25.6261V27.6281L78.2507 27.6308Z" fill="white"/>
<path d="M82.0211 27.6308H81.4736V27.1163H81.4595C81.2321 27.5108 80.8811 27.7081 80.4038 27.7081C79.5868 27.7081 79.1797 27.2469 79.1797 26.3245V24.3812H79.7244V26.2419C79.7244 26.927 79.9995 27.2709 80.5526 27.2709C80.8194 27.2709 81.0412 27.1776 81.2125 26.991C81.3865 26.8044 81.4708 26.5591 81.4708 26.2552V24.3812H82.0183V27.6334L82.0211 27.6308Z" fill="white"/>
<path d="M82.8854 27.5135V26.9537C83.183 27.1643 83.5115 27.2682 83.8709 27.2682C84.351 27.2682 84.5925 27.1163 84.5925 26.8124C84.5925 26.7244 84.5728 26.6524 84.5307 26.5911C84.4886 26.5298 84.4324 26.4765 84.3622 26.4312C84.292 26.3858 84.2106 26.3432 84.1151 26.3059C84.0197 26.2686 83.9186 26.2312 83.8091 26.1912C83.6575 26.1353 83.5255 26.0766 83.4104 26.018C83.2953 25.9593 83.1998 25.8953 83.124 25.8207C83.0482 25.7487 82.9893 25.6634 82.95 25.5701C82.9106 25.4768 82.891 25.3675 82.891 25.2422C82.891 25.0903 82.9275 24.9543 83.0005 24.837C83.0735 24.7197 83.1718 24.6211 83.2953 24.5411C83.4188 24.4612 83.5564 24.4025 83.7136 24.3625C83.8709 24.3225 84.0337 24.3012 84.1994 24.3012C84.497 24.3012 84.7609 24.3492 84.994 24.4478V24.9757C84.7413 24.8184 84.4521 24.7411 84.1236 24.7411C84.0197 24.7411 83.9298 24.7517 83.8456 24.7731C83.7642 24.7944 83.6912 24.8264 83.6322 24.8664C83.5733 24.9063 83.5283 24.9543 83.4946 25.0103C83.461 25.0663 83.4469 25.1276 83.4469 25.1969C83.4469 25.2822 83.4638 25.3515 83.4946 25.4102C83.5255 25.4662 83.5733 25.5195 83.6378 25.5621C83.7024 25.6048 83.7754 25.6474 83.8653 25.6821C83.9551 25.7194 84.0562 25.7567 84.1685 25.7994C84.3201 25.8554 84.4549 25.9113 84.5756 25.97C84.6963 26.0286 84.7974 26.0926 84.8844 26.1673C84.9687 26.2392 85.0333 26.3245 85.081 26.4205C85.1259 26.5165 85.1484 26.6284 85.1484 26.7591C85.1484 26.919 85.1119 27.0603 85.0361 27.1776C84.9603 27.2975 84.862 27.3935 84.7356 27.4735C84.6121 27.5508 84.4661 27.6094 84.3033 27.6494C84.1404 27.6867 83.9691 27.7054 83.7923 27.7054C83.4413 27.7054 83.1353 27.6414 82.877 27.5108L82.8854 27.5135Z" fill="white"/>
<path d="M87.5557 27.6015C87.4266 27.6681 87.2553 27.7028 87.0447 27.7028C86.4439 27.7028 86.1463 27.3855 86.1463 26.7511V24.8264H85.5566V24.3812H86.1463V23.5868L86.6938 23.4189V24.3812H87.5557V24.8264H86.6938V26.6578C86.6938 26.8764 86.7331 27.031 86.8117 27.1243C86.8903 27.2176 87.0194 27.2629 87.1991 27.2629C87.3367 27.2629 87.4574 27.2283 87.5557 27.1563V27.6015Z" fill="white"/>
<path d="M90.7018 27.6308H90.1544V27.1216H90.1403C89.9017 27.5108 89.5507 27.7054 89.0874 27.7054C88.7477 27.7054 88.4782 27.6201 88.2872 27.4495C88.0935 27.2789 87.998 27.0496 87.998 26.7671C87.998 26.1593 88.3743 25.8074 89.1295 25.7061L90.1572 25.5701C90.1572 25.0183 89.9213 24.7411 89.4524 24.7411C89.0397 24.7411 88.6691 24.8744 88.335 25.1409V24.6078C88.6719 24.4052 89.0594 24.3039 89.4974 24.3039C90.3032 24.3039 90.7047 24.7091 90.7047 25.5168V27.6308H90.7018ZM90.1544 25.986L89.3289 26.0926C89.0734 26.1273 88.8825 26.1859 88.7533 26.2712C88.6242 26.3565 88.5596 26.5085 88.5596 26.7271C88.5596 26.8844 88.6185 27.015 88.7393 27.1163C88.8572 27.2176 89.0172 27.2682 89.2166 27.2682C89.4889 27.2682 89.7135 27.1776 89.8904 26.9963C90.0673 26.8151 90.1572 26.5858 90.1572 26.3086V25.986H90.1544Z" fill="white"/>
<path d="M94.6254 29.1263H94.078V27.071H94.0639C93.8253 27.4948 93.435 27.7054 92.8931 27.7054C92.4635 27.7054 92.1182 27.5588 91.8571 27.2682C91.596 26.9776 91.4668 26.5804 91.4668 26.0793C91.4668 25.5381 91.61 25.1089 91.8936 24.7864C92.18 24.4638 92.5618 24.3012 93.0447 24.3012C93.5276 24.3012 93.8505 24.4771 94.0611 24.829H94.0751V24.3785H94.6226V29.1236L94.6254 29.1263ZM94.078 26.1673V25.6954C94.078 25.4288 93.9853 25.2022 93.8028 25.0183C93.6203 24.8344 93.3845 24.7411 93.1009 24.7411C92.7724 24.7411 92.5113 24.8557 92.3175 25.0876C92.1266 25.3195 92.0311 25.6448 92.0311 26.066C92.0311 26.4418 92.1238 26.7351 92.3091 26.9457C92.4944 27.1589 92.7331 27.2656 93.0251 27.2656C93.3451 27.2656 93.6006 27.1616 93.7916 26.9537C93.9825 26.7457 94.078 26.4818 94.078 26.1646V26.1673Z" fill="white"/>
<path d="M96.2627 27.1616H96.2487V27.6308H95.7012V22.819H96.2487V24.9517H96.2627C96.5322 24.5198 96.9281 24.3039 97.4476 24.3039C97.8856 24.3039 98.2309 24.4505 98.478 24.7411C98.725 25.0316 98.8514 25.4208 98.8514 25.9113C98.8514 26.4552 98.711 26.8897 98.433 27.2176C98.1551 27.5455 97.7732 27.7081 97.2903 27.7081C96.8383 27.7081 96.4957 27.5268 96.2627 27.1616ZM96.2487 25.85V26.3032C96.2487 26.5724 96.3413 26.799 96.5238 26.9883C96.7091 27.1749 96.9422 27.2682 97.2257 27.2682C97.5571 27.2682 97.8182 27.1483 98.0063 26.9057C98.1944 26.6657 98.2899 26.3299 98.2899 25.9007C98.2899 25.5381 98.2028 25.2556 98.0259 25.0503C97.8491 24.845 97.6104 24.7411 97.31 24.7411C96.9899 24.7411 96.7344 24.8477 96.5407 25.0583C96.3469 25.2689 96.2487 25.5328 96.2487 25.85Z" fill="white"/>
<path d="M102.053 27.6308H101.506V27.1216H101.492C101.253 27.5108 100.902 27.7054 100.439 27.7054C100.099 27.7054 99.8297 27.6201 99.6388 27.4495C99.4451 27.2789 99.3496 27.0496 99.3496 26.7671C99.3496 26.1593 99.7258 25.8074 100.481 25.7061L101.509 25.5701C101.509 25.0183 101.273 24.7411 100.804 24.7411C100.391 24.7411 100.021 24.8744 99.6865 25.1409V24.6078C100.023 24.4052 100.411 24.3039 100.849 24.3039C101.655 24.3039 102.056 24.7091 102.056 25.5168V27.6308H102.053ZM101.506 25.986L100.68 26.0926C100.425 26.1273 100.234 26.1859 100.105 26.2712C99.9757 26.3565 99.9111 26.5085 99.9111 26.7271C99.9111 26.8844 99.9701 27.015 100.091 27.1163C100.209 27.2176 100.369 27.2682 100.568 27.2682C100.84 27.2682 101.065 27.1776 101.242 26.9963C101.419 26.8151 101.509 26.5858 101.509 26.3086V25.986H101.506Z" fill="white"/>
<path d="M103.6 27.6308H103.053V22.819H103.6V27.6308Z" fill="white"/>
<path d="M108.212 23.2749C108.105 23.2189 107.984 23.1896 107.847 23.1896C107.462 23.1896 107.271 23.4188 107.271 23.8774V24.3785H108.074V24.8237H107.271V27.6308H106.727V24.8237H106.143V24.3785H106.727V23.8507C106.727 23.5095 106.83 23.2402 107.038 23.043C107.246 22.8457 107.504 22.7471 107.813 22.7471C107.982 22.7471 108.114 22.7657 108.212 22.8031V23.2722V23.2749Z" fill="white"/>
<path d="M110.059 27.7081C109.554 27.7081 109.15 27.5561 108.847 27.2522C108.543 26.9483 108.395 26.5458 108.395 26.0446C108.395 25.4982 108.552 25.0716 108.866 24.7651C109.181 24.4585 109.605 24.3039 110.141 24.3039C110.677 24.3039 111.051 24.4532 111.337 24.7517C111.623 25.0503 111.767 25.4635 111.767 25.994C111.767 26.5245 111.612 26.927 111.303 27.2389C110.994 27.5508 110.582 27.7081 110.062 27.7081H110.059ZM110.099 24.7437C109.748 24.7437 109.467 24.8584 109.262 25.085C109.057 25.3116 108.953 25.6261 108.953 26.026C108.953 26.4259 109.057 26.7138 109.265 26.9377C109.473 27.1589 109.751 27.2709 110.096 27.2709C110.441 27.2709 110.722 27.1616 110.913 26.943C111.104 26.7244 111.199 26.4152 111.199 26.0127C111.199 25.6101 111.104 25.2929 110.913 25.0743C110.722 24.853 110.45 24.7437 110.096 24.7437H110.099Z" fill="white"/>
<path d="M114.391 24.909C114.296 24.8397 114.158 24.805 113.976 24.805C113.743 24.805 113.546 24.909 113.389 25.1196C113.232 25.3302 113.153 25.6154 113.153 25.978V27.6361H112.605V24.3838H113.153V25.053H113.167C113.246 24.8237 113.364 24.6451 113.524 24.5171C113.684 24.3892 113.863 24.3252 114.063 24.3252C114.206 24.3252 114.315 24.3412 114.391 24.3705V24.909Z" fill="white"/>
<path d="M120.304 27.6308H119.636L118.833 26.3539C118.76 26.2366 118.687 26.1353 118.619 26.05C118.552 25.9647 118.479 25.898 118.406 25.8447C118.333 25.7914 118.254 25.7541 118.173 25.7301C118.089 25.7061 117.996 25.6927 117.889 25.6927H117.429V27.6281H116.867V23.075H118.299C118.51 23.075 118.703 23.0989 118.88 23.1496C119.057 23.2002 119.212 23.2749 119.341 23.3762C119.47 23.4775 119.574 23.6054 119.647 23.7547C119.72 23.904 119.756 24.0826 119.756 24.2852C119.756 24.4452 119.731 24.5891 119.68 24.7224C119.63 24.8557 119.56 24.973 119.467 25.077C119.374 25.1809 119.262 25.2689 119.133 25.3409C119.004 25.4128 118.855 25.4715 118.692 25.5115V25.5248C118.774 25.5595 118.841 25.5968 118.903 25.6394C118.962 25.6821 119.018 25.7354 119.071 25.794C119.125 25.8527 119.178 25.9193 119.231 25.9966C119.285 26.0713 119.341 26.1593 119.405 26.2579L120.304 27.6254V27.6308ZM117.429 23.5601V25.2102H118.19C118.33 25.2102 118.459 25.1889 118.58 25.1489C118.698 25.1089 118.802 25.0503 118.889 24.9757C118.976 24.901 119.043 24.8077 119.094 24.6984C119.144 24.5891 119.167 24.4665 119.167 24.3305C119.167 24.0879 119.082 23.8987 118.917 23.7601C118.751 23.6241 118.51 23.5548 118.195 23.5548H117.426L117.429 23.5601Z" fill="white"/>
<path d="M123.418 26.1353H121.001C121.009 26.4978 121.113 26.7777 121.31 26.9723C121.506 27.1696 121.776 27.2682 122.118 27.2682C122.503 27.2682 122.859 27.1483 123.182 26.9057V27.3935C122.882 27.6015 122.483 27.7054 121.989 27.7054C121.495 27.7054 121.124 27.5588 120.849 27.2629C120.574 26.967 120.434 26.5511 120.434 26.018C120.434 25.5115 120.585 25.101 120.886 24.7811C121.189 24.4612 121.562 24.3039 122.012 24.3039C122.461 24.3039 122.806 24.4425 123.05 24.7171C123.295 24.9917 123.418 25.3729 123.418 25.8634V26.1353ZM122.857 25.6928C122.857 25.3915 122.778 25.1596 122.626 24.9917C122.475 24.8237 122.267 24.7411 122 24.7411C121.734 24.7411 121.523 24.8291 121.34 25.005C121.161 25.1809 121.048 25.4102 121.006 25.6928H122.857Z" fill="white"/>
<path d="M127.053 27.6308H126.506V25.7754C126.506 25.0849 126.242 24.7411 125.711 24.7411C125.436 24.7411 125.212 24.8397 125.032 25.0343C124.852 25.2289 124.762 25.4768 124.762 25.7754V27.6308H124.215V24.3785H124.762V24.917H124.776C125.035 24.5065 125.408 24.3012 125.899 24.3012C126.273 24.3012 126.559 24.4158 126.759 24.6451C126.958 24.8743 127.056 25.2076 127.056 25.6394V27.6281L127.053 27.6308Z" fill="white"/>
<path d="M130.805 26.1353H128.387C128.396 26.4978 128.5 26.7777 128.696 26.9723C128.893 27.1696 129.162 27.2682 129.505 27.2682C129.89 27.2682 130.246 27.1483 130.569 26.9057V27.3935C130.269 27.6015 129.87 27.7054 129.376 27.7054C128.882 27.7054 128.511 27.5588 128.236 27.2629C127.961 26.967 127.82 26.5511 127.82 26.018C127.82 25.5115 127.972 25.101 128.272 24.7811C128.576 24.4612 128.949 24.3039 129.398 24.3039C129.847 24.3039 130.193 24.4425 130.437 24.7171C130.681 24.9917 130.805 25.3729 130.805 25.8634V26.1353ZM130.243 25.6928C130.243 25.3915 130.165 25.1596 130.013 24.9917C129.862 24.8237 129.654 24.7411 129.387 24.7411C129.12 24.7411 128.91 24.8291 128.727 25.005C128.548 25.1809 128.435 25.4102 128.393 25.6928H130.243Z" fill="white"/>
<path d="M135.914 24.3812L134.886 27.6334H134.319L133.615 25.3062C133.586 25.2182 133.57 25.117 133.561 25.005H133.547C133.542 25.0823 133.516 25.1809 133.477 25.3009L132.71 27.6334H132.163L131.127 24.3812H131.703L132.413 26.8257C132.435 26.9004 132.449 26.9963 132.461 27.119H132.489C132.494 27.0256 132.517 26.927 132.548 26.8204L133.337 24.3812H133.839L134.547 26.831C134.569 26.9084 134.586 27.007 134.597 27.1243H134.625C134.631 27.0416 134.648 26.9457 134.681 26.831L135.378 24.3812H135.92H135.914Z" fill="white"/>
<path d="M138.967 27.6308H138.42V27.1216H138.406C138.167 27.5108 137.816 27.7054 137.353 27.7054C137.013 27.7054 136.744 27.6201 136.553 27.4495C136.359 27.2789 136.264 27.0496 136.264 26.7671C136.264 26.1593 136.64 25.8074 137.395 25.7061L138.423 25.5701C138.423 25.0183 138.187 24.7411 137.718 24.7411C137.305 24.7411 136.935 24.8744 136.601 25.1409V24.6078C136.938 24.4052 137.325 24.3039 137.763 24.3039C138.569 24.3039 138.97 24.7091 138.97 25.5168V27.6308H138.967ZM138.42 25.986L137.595 26.0926C137.339 26.1273 137.148 26.1859 137.019 26.2712C136.89 26.3565 136.825 26.5085 136.825 26.7271C136.825 26.8844 136.884 27.015 137.005 27.1163C137.123 27.2176 137.283 27.2682 137.482 27.2682C137.755 27.2682 137.979 27.1776 138.156 26.9963C138.333 26.8151 138.423 26.5858 138.423 26.3086V25.986H138.42Z" fill="white"/>
<path d="M140.528 27.1616H140.514V27.6308H139.967V22.819H140.514V24.9517H140.528C140.798 24.5198 141.194 24.3039 141.713 24.3039C142.151 24.3039 142.497 24.4505 142.744 24.7411C142.991 25.0316 143.117 25.4208 143.117 25.9113C143.117 26.4552 142.977 26.8897 142.699 27.2176C142.421 27.5455 142.039 27.7081 141.556 27.7081C141.104 27.7081 140.761 27.5268 140.528 27.1616ZM140.514 25.85V26.3032C140.514 26.5724 140.607 26.799 140.789 26.9883C140.972 27.1749 141.208 27.2682 141.491 27.2682C141.823 27.2682 142.084 27.1483 142.272 26.9057C142.46 26.6657 142.555 26.3299 142.555 25.9007C142.555 25.5381 142.468 25.2556 142.292 25.0503C142.115 24.845 141.876 24.7411 141.576 24.7411C141.258 24.7411 141 24.8477 140.806 25.0583C140.613 25.2689 140.514 25.5328 140.514 25.85Z" fill="white"/>
<path d="M144.506 27.6308H143.959V22.819H144.506V27.6308Z" fill="white"/>
<path d="M148.332 26.1353H145.915C145.923 26.4978 146.027 26.7777 146.224 26.9723C146.42 27.1696 146.69 27.2682 147.032 27.2682C147.417 27.2682 147.773 27.1483 148.096 26.9057V27.3935C147.796 27.6015 147.397 27.7054 146.903 27.7054C146.409 27.7054 146.038 27.5588 145.763 27.2629C145.488 26.967 145.348 26.5511 145.348 26.018C145.348 25.5115 145.499 25.101 145.8 24.7811C146.103 24.4612 146.476 24.3039 146.926 24.3039C147.375 24.3039 147.72 24.4425 147.964 24.7171C148.209 24.9917 148.332 25.3729 148.332 25.8634V26.1353ZM147.771 25.6928C147.771 25.3915 147.692 25.1596 147.54 24.9917C147.389 24.8237 147.181 24.7411 146.914 24.7411C146.648 24.7411 146.437 24.8291 146.255 25.005C146.075 25.1809 145.963 25.4102 145.92 25.6928H147.771Z" fill="white"/>
<path d="M153.584 27.6308H151.043V23.0776H153.477V23.5601H151.605V25.0743H153.337V25.5541H151.605V27.1483H153.584V27.6308Z" fill="white"/>
<path d="M157.243 27.6308H156.695V25.7754C156.695 25.0849 156.431 24.7411 155.901 24.7411C155.626 24.7411 155.401 24.8397 155.221 25.0343C155.042 25.2289 154.952 25.4768 154.952 25.7754V27.6308H154.404V24.3785H154.952V24.917H154.966C155.224 24.5065 155.598 24.3012 156.089 24.3012C156.462 24.3012 156.749 24.4158 156.948 24.6451C157.147 24.8743 157.246 25.2076 157.246 25.6394V27.6281L157.243 27.6308Z" fill="white"/>
<path d="M160.992 26.1353H158.575C158.583 26.4978 158.687 26.7777 158.884 26.9723C159.08 27.1696 159.35 27.2682 159.692 27.2682C160.077 27.2682 160.434 27.1483 160.757 26.9057V27.3935C160.456 27.6015 160.057 27.7054 159.563 27.7054C159.069 27.7054 158.698 27.5588 158.423 27.2629C158.148 26.967 158.008 26.5511 158.008 26.018C158.008 25.5115 158.159 25.101 158.46 24.7811C158.763 24.4612 159.137 24.3039 159.586 24.3039C160.035 24.3039 160.38 24.4425 160.625 24.7171C160.869 24.9917 160.992 25.3729 160.992 25.8634V26.1353ZM160.431 25.6928C160.431 25.3915 160.352 25.1596 160.201 24.9917C160.049 24.8237 159.841 24.7411 159.574 24.7411C159.308 24.7411 159.097 24.8291 158.915 25.005C158.735 25.1809 158.623 25.4102 158.581 25.6928H160.431Z" fill="white"/>
<path d="M163.573 24.909C163.477 24.8397 163.34 24.805 163.157 24.805C162.924 24.805 162.728 24.909 162.57 25.1196C162.413 25.3302 162.335 25.6154 162.335 25.978V27.6361H161.787V24.3838H162.335V25.053H162.349C162.427 24.8237 162.545 24.6451 162.705 24.5171C162.865 24.3892 163.045 24.3252 163.244 24.3252C163.387 24.3252 163.497 24.3412 163.573 24.3705V24.909Z" fill="white"/>
<path d="M166.969 27.3722C166.969 28.5665 166.367 29.1636 165.163 29.1636C164.739 29.1636 164.369 29.0863 164.055 28.9344V28.4145C164.44 28.6171 164.807 28.7184 165.158 28.7184C166.001 28.7184 166.422 28.2919 166.422 27.4415V27.087H166.408C166.147 27.5028 165.753 27.7081 165.23 27.7081C164.804 27.7081 164.462 27.5641 164.204 27.2736C163.943 26.9857 163.812 26.5965 163.812 26.1086C163.812 25.5568 163.954 25.117 164.232 24.7917C164.51 24.4665 164.894 24.3039 165.38 24.3039C165.866 24.3039 166.183 24.4798 166.408 24.8317H166.422V24.3812H166.969V27.3722ZM166.422 26.1619V25.6821C166.422 25.4235 166.328 25.2023 166.146 25.0183C165.96 24.8344 165.733 24.7411 165.458 24.7411C165.118 24.7411 164.854 24.8584 164.663 25.093C164.472 25.3276 164.378 25.6554 164.378 26.0766C164.378 26.4392 164.469 26.7271 164.652 26.9457C164.834 27.1616 165.08 27.2709 165.383 27.2709C165.686 27.2709 165.942 27.1669 166.133 26.959C166.326 26.7511 166.422 26.4845 166.422 26.1619Z" fill="white"/>
<path d="M170.769 24.3812L169.194 28.1533C168.913 28.825 168.517 29.1636 168.009 29.1636C167.866 29.1636 167.748 29.1503 167.652 29.1236V28.6571C167.77 28.6944 167.88 28.7131 167.978 28.7131C168.253 28.7131 168.461 28.5558 168.598 28.2439L168.874 27.6281L167.537 24.3839H168.146L169.073 26.8844C169.084 26.9163 169.107 26.999 169.143 27.1323H169.163C169.174 27.0816 169.196 27.0017 169.23 26.8897L170.202 24.3812H170.772H170.769Z" fill="white"/>
</g>
</g>
<defs>
<clipPath id="clip0_134_239">
<rect width="171" height="40" fill="white"/>
</clipPath>
</defs>
</svg>
